<svg xmlns="http://www.w3.org/2000/svg" viewBox="0 14.100000381469727 127.4000015258789 41" data-asc="0.92" width="127.4000015258789" height="41"><defs/><g fill="#fffb00"><g transform="translate(0, 0)"><path d="M4.40 46.55L4.40 42.30L0 42.30L0 26.95L4.40 26.95L4.40 22.65L19.60 22.65L19.60 26.95L24.05 26.95L24.05 39.75L28.50 39.75L28.50 46.55L22.10 46.55L22.10 42.30L19.60 42.30L19.60 46.55L4.40 46.55M6.35 39.75L17.65 39.75L17.65 29.45L6.35 29.45L6.35 39.75ZM32.10 46.55L32.10 14.10L38.45 14.10L38.45 46.55L32.10 46.55ZM48.95 55.10L48.95 50.85L44.55 50.85L44.55 44.05L50.90 44.05L50.90 48.30L62.25 48.30L62.25 42.30L48.95 42.30L48.95 38L44.55 38L44.55 26.95L48.95 26.95L48.95 22.65L64.20 22.65L64.20 26.95L68.60 26.95L68.60 50.85L64.20 50.85L64.20 55.10L48.95 55.10M50.90 35.45L62.25 35.45L62.25 29.45L50.90 29.45L50.90 35.45ZM77.60 46.55L77.60 42.30L73.20 42.30L73.20 26.95L77.60 26.95L77.60 22.65L92.80 22.65L92.80 26.95L97.25 26.95L97.25 42.30L92.80 42.30L92.80 46.55L77.60 46.55M79.55 39.75L90.85 39.75L90.85 29.45L79.55 29.45L79.55 39.75ZM103.35 46.55L103.35 39.75L107.75 39.75L107.75 31.15L112.15 31.15L112.15 29.45L107.75 29.45L107.75 20.95L103.35 20.95L103.35 14.10L109.70 14.10L109.70 18.40L114.10 18.40L114.10 26.95L116.60 26.95L116.60 18.40L121.00 18.40L121.00 14.10L127.40 14.10L127.40 20.95L122.95 20.95L122.95 29.45L118.55 29.45L118.55 31.15L122.95 31.15L122.95 39.75L127.40 39.75L127.40 46.55L121.00 46.55L121.00 42.30L116.60 42.30L116.60 33.70L114.10 33.70L114.10 42.30L109.70 42.30L109.70 46.55L103.35 46.55Z"/></g></g></svg>